<?xml version="1.0" encoding="UTF-8" standalone="no"?>
<svg
   xmlns:dc="http://purl.org/dc/elements/1.1/"
   xmlns:cc="http://creativecommons.org/ns#"
   xmlns:rdf="http://www.w3.org/1999/02/22-rdf-syntax-ns#"
   xmlns:svg="http://www.w3.org/2000/svg"
   xmlns="http://www.w3.org/2000/svg"
   id="SVGRoot"
   version="1.1"
   viewBox="0 0 256 256"
   height="256px"
   width="256px">
  <defs
     id="defs1832">
    <linearGradient
       id="SVGID_2_"
       gradientUnits="userSpaceOnUse"
       x1="26.5854"
       y1="30.7778"
       x2="93.585403"
       y2="90.277802">
      <stop
         offset="0"
         style="stop-color:#2D4664"
         id="stop1581" />
      <stop
         offset="0.1689"
         style="stop-color:#29405B"
         id="stop1583" />
      <stop
         offset="0.4445"
         style="stop-color:#1E2F43"
         id="stop1585" />
      <stop
         offset="0.7902"
         style="stop-color:#0C131B"
         id="stop1587" />
      <stop
         offset="1"
         style="stop-color:#000000"
         id="stop1589" />
    </linearGradient>
    <clipPath
       id="e">
      <path
         id="path588"
         d="m 241.066,225.953 c -0.707,0.07 -1.398,0.29 -2.035,0.652 l -42.01,24.247 45.3,82.51 c 0.63,-0.09 1.25,-0.3 1.81,-0.624 l 42.13,-24.336 c 1.3,-0.754 2.19,-2.03 2.46,-3.476 l -46.18,-78.89 c -0.34,-0.067 -0.68,-0.102 -1.03,-0.102 -0.14,0 -0.28,0.007 -0.42,0.02" />
    </clipPath>
    <linearGradient
       gradientUnits="userSpaceOnUse"
       gradientTransform="matrix(97.417,0,0,97.417,192.862,279.652)"
       x2="0.98400003"
       x1="0.043000001"
       id="f">
      <stop
         id="stop591"
         stop-color="#6BBF47"
         offset=".16" />
      <stop
         id="stop593"
         stop-color="#79B461"
         offset=".38" />
      <stop
         id="stop595"
         stop-color="#75AC64"
         offset=".47" />
      <stop
         id="stop597"
         stop-color="#659E5A"
         offset=".7" />
      <stop
         id="stop599"
         stop-color="#3E863D"
         offset=".9" />
    </linearGradient>
    <clipPath
       id="c">
      <path
         id="path578"
         d="m 195.398,307.086 c 0.403,0.523 0.907,0.976 1.5,1.316 l 36.14,20.875 6.02,3.46 c 0.9,0.52 1.926,0.74 2.934,0.665 0.336,-0.027 0.672,-0.09 1,-0.183 l 44.434,-81.36 c -0.34,-0.37 -0.738,-0.68 -1.184,-0.94 l -27.586,-15.93 -14.582,-8.39 c -0.414,-0.24 -0.863,-0.41 -1.32,-0.53 z m 0,0" />
    </clipPath>
    <linearGradient
       gradientUnits="userSpaceOnUse"
       gradientTransform="matrix(106.8057,-78.916731,78.916731,106.8057,235.18824,285.39477)"
       x2="0.58200002"
       x1="-0.456"
       id="d">
      <stop
         id="stop581"
         stop-color="#3E863D"
         offset=".57" />
      <stop
         id="stop583"
         stop-color="#619857"
         offset=".72" />
      <stop
         id="stop585"
         stop-color="#76AC64"
         offset="1" />
    </linearGradient>
    <clipPath
       id="a">
      <path
         id="path568"
         d="m 239.03,226.605 -42.13,24.317 c -1.578,0.91 -2.546,2.59 -2.546,4.406 v 48.668 c 0,1.817 0.968,3.496 2.546,4.406 l 42.133,24.336 c 1.575,0.907 3.517,0.907 5.09,0 l 42.126,-24.336 c 1.57,-0.91 2.54,-2.59 2.54,-4.406 v -48.668 c 0,-1.816 -0.97,-3.496 -2.55,-4.406 l -42.12,-24.317 c -0.79,-0.453 -1.67,-0.68 -2.55,-0.68 -0.88,0 -1.76,0.227 -2.55,0.68" />
    </clipPath>
    <linearGradient
       gradientUnits="userSpaceOnUse"
       gradientTransform="matrix(-38.064915,77.652126,-77.652126,-38.064915,258.72325,244.62943)"
       x2="1.251"
       x1="-0.34799999"
       id="b">
      <stop
         id="stop571"
         stop-color="#3E863D"
         offset=".3" />
      <stop
         id="stop573"
         stop-color="#55934F"
         offset=".5" />
      <stop
         id="stop575"
         stop-color="#5AAD45"
         offset=".8" />
    </linearGradient>
    <clipPath
       id="a-3">
      <path
         d="M239.03 226.605l-42.13 24.317c-1.578.91-2.546 2.59-2.546 4.406v48.668c0 1.817.968 3.496 2.546 4.406l42.133 24.336c1.575.907 3.517.907 5.09 0l42.126-24.336c1.57-.91 2.54-2.59 2.54-4.406v-48.668c0-1.816-.97-3.496-2.55-4.406l-42.12-24.317c-.79-.453-1.67-.68-2.55-.68-.88 0-1.76.227-2.55.68"
         id="path8928" />
    </clipPath>
    <linearGradient
       id="b-7"
       x1="-.348"
       x2="1.251"
       gradientTransform="matrix(-38.064915,77.652126,-77.652126,-38.064915,258.72325,244.62943)"
       gradientUnits="userSpaceOnUse">
      <stop
         offset=".3"
         stop-color="#3E863D"
         id="stop8931" />
      <stop
         offset=".5"
         stop-color="#55934F"
         id="stop8933" />
      <stop
         offset=".8"
         stop-color="#5AAD45"
         id="stop8935" />
    </linearGradient>
    <clipPath
       id="c-5">
      <path
         d="M195.398 307.086c.403.523.907.976 1.5 1.316l36.14 20.875 6.02 3.46c.9.52 1.926.74 2.934.665.336-.027.672-.09 1-.183l44.434-81.36c-.34-.37-.738-.68-1.184-.94l-27.586-15.93-14.582-8.39c-.414-.24-.863-.41-1.32-.53zm0 0"
         id="path8938" />
    </clipPath>
    <linearGradient
       id="d-9"
       x1="-.456"
       x2=".582"
       gradientTransform="matrix(106.8057,-78.916731,78.916731,106.8057,235.18824,285.39477)"
       gradientUnits="userSpaceOnUse">
      <stop
         offset=".57"
         stop-color="#3E863D"
         id="stop8941" />
      <stop
         offset=".72"
         stop-color="#619857"
         id="stop8943" />
      <stop
         offset="1"
         stop-color="#76AC64"
         id="stop8945" />
    </linearGradient>
    <clipPath
       id="e-2">
      <path
         d="M241.066 225.953c-.707.07-1.398.29-2.035.652l-42.01 24.247 45.3 82.51c.63-.09 1.25-.3 1.81-.624l42.13-24.336c1.3-.754 2.19-2.03 2.46-3.476l-46.18-78.89c-.34-.067-.68-.102-1.03-.102-.14 0-.28.007-.42.02"
         id="path8948" />
    </clipPath>
    <linearGradient
       id="f-2"
       x1=".043"
       x2=".984"
       gradientTransform="matrix(97.417,0,0,97.417,192.862,279.652)"
       gradientUnits="userSpaceOnUse">
      <stop
         offset=".16"
         stop-color="#6BBF47"
         id="stop8951" />
      <stop
         offset=".38"
         stop-color="#79B461"
         id="stop8953" />
      <stop
         offset=".47"
         stop-color="#75AC64"
         id="stop8955" />
      <stop
         offset=".7"
         stop-color="#659E5A"
         id="stop8957" />
      <stop
         offset=".9"
         stop-color="#3E863D"
         id="stop8959" />
    </linearGradient>
    <linearGradient
       id="SVGID_2_-8"
       gradientUnits="userSpaceOnUse"
       x1="26.5854"
       y1="30.7778"
       x2="93.585403"
       y2="90.277802">
      <stop
         offset="0"
         style="stop-color:#2D4664"
         id="stop1581-9" />
      <stop
         offset="0.1689"
         style="stop-color:#29405B"
         id="stop1583-7" />
      <stop
         offset="0.4445"
         style="stop-color:#1E2F43"
         id="stop1585-3" />
      <stop
         offset="0.7902"
         style="stop-color:#0C131B"
         id="stop1587-6" />
      <stop
         offset="1"
         style="stop-color:#000000"
         id="stop1589-1" />
    </linearGradient>
  </defs>
  <metadata
     id="metadata1835">
    <rdf:RDF>
      <cc:Work
         rdf:about="">
        <dc:format>image/svg+xml</dc:format>
        <dc:type
           rdf:resource="http://purl.org/dc/dcmitype/StillImage" />
        <dc:title></dc:title>
      </cc:Work>
    </rdf:RDF>
  </metadata>
  <g
     id="layer1">
    <g
       transform="matrix(1.9527219,0,0,1.9527219,-956.91279,-465.43142)"
       id="g9020">
      <g
         clip-path="url(#a-3)"
         transform="matrix(1.1910183,0,0,1.1910183,268.64777,-29.194415)"
         id="g8974">
        <path
           d="m 331.363,246.793 -118.715,-58.19 -60.87,124.174 118.712,58.193 z m 0,0"
           id="path8972"
           style="fill:url(#b-7)" />
      </g>
      <g
         clip-path="url(#c-5)"
         transform="matrix(1.1910183,0,0,1.1910183,268.64777,-29.279002)"
         id="g8978">
        <path
           d="m 144.07,264.004 83.825,113.453 110.86,-81.906 -83.83,-113.45 z m 0,0"
           id="path8976"
           style="fill:url(#d-9)" />
      </g>
      <g
         clip-path="url(#e-2)"
         transform="matrix(1.1910183,0,0,1.1910183,268.64777,-29.166278)"
         id="g8982">
        <path
           d="m 197.02,225.934 v 107.43 h 91.683 v -107.43 z m 0,0"
           id="path8980"
           style="fill:url(#f-2)" />
      </g>
    </g>
    <g
       transform="matrix(1.9130611,0,0,1.9078266,7.3876648,5.8990976)"
       id="g1630">
      <g
         id="g1570">
        <line
           style="fill:none"
           x1="0"
           y1="128"
           x2="0"
           y2="0"
           id="line1568" />
      </g>
      <line
         style="clip-rule:evenodd;opacity:0;fill:#00ff18;fill-rule:evenodd"
         x1="0"
         y1="128"
         x2="0"
         y2="0"
         id="line1572" />
      <path
         style="clip-rule:evenodd;opacity:0.8;fill:url(#SVGID_1_);fill-rule:evenodd"
         d="M 9.033,109 C 7.4,109 5.987,108.362 5.055,107.202 4.103,106.017 3.776,104.388 4.159,102.732 L 22.145,24.821 C 22.899,21.557 26.062,19 29.349,19 h 89.623 c 1.634,0 3.047,0.638 3.978,1.798 0.952,1.184 1.279,2.814 0.896,4.47 l -17.986,77.911 c -0.753,3.264 -3.917,5.822 -7.203,5.822 H 9.033 Z"
         id="path1579" />
      <g
         id="g1596">
        <g
           id="g1594">
          <linearGradient
             id="linearGradient1686"
             gradientUnits="userSpaceOnUse"
             x1="26.5854"
             y1="30.7778"
             x2="93.585403"
             y2="90.277802">
            <stop
               offset="0"
               style="stop-color:#2D4664"
               id="stop1676" />
            <stop
               offset="0.1689"
               style="stop-color:#29405B"
               id="stop1678" />
            <stop
               offset="0.4445"
               style="stop-color:#1E2F43"
               id="stop1680" />
            <stop
               offset="0.7902"
               style="stop-color:#0C131B"
               id="stop1682" />
            <stop
               offset="1"
               style="stop-color:#000000"
               id="stop1684" />
          </linearGradient>
          <path
             style="clip-rule:evenodd;fill:url(#SVGID_2_-8);fill-rule:evenodd"
             d="M 118.5,20 H 29.634 c -2.769,0 -5.53,2.259 -6.168,5.045 L 5.632,102.955 C 4.995,105.742 6.722,108 9.491,108 h 88.865 c 2.769,0 5.53,-2.258 6.168,-5.045 L 122.358,25.044 C 122.996,22.259 121.268,20 118.5,20 Z"
             id="path1592" />
        </g>
      </g>
      <path
         style="clip-rule:evenodd;fill:#2c5591;fill-rule:evenodd"
         d="m 64.165,87.558 h 21.613 c 2.513,0 4.55,2.125 4.55,4.746 0,2.621 -2.037,4.747 -4.55,4.747 H 64.165 c -2.513,0 -4.55,-2.125 -4.55,-4.747 0,-2.621 2.037,-4.746 4.55,-4.746 z"
         id="path1598" />
      <path
         style="clip-rule:evenodd;fill:#2c5591;fill-rule:evenodd"
         d="m 78.184,66.455 c -0.372,0.749 -1.144,1.575 -2.509,2.534 L 35.562,97.798 c -2.19,1.591 -5.334,1.001 -7.021,-1.319 -1.687,-2.32 -1.28,-5.49 0.91,-7.082 L 65.624,63.203 V 62.665 L 42.896,38.487 c -1.854,-1.972 -1.661,-5.161 0.431,-7.124 2.092,-1.962 5.29,-1.954 7.144,0.018 l 27.271,29.012 c 1.548,1.647 1.663,4.141 0.442,6.062 z"
         id="path1600" />
      <path
         style="clip-rule:evenodd;fill:#ffffff;fill-rule:evenodd"
         d="m 77.184,65.455 c -0.372,0.749 -1.144,1.575 -2.509,2.534 L 34.562,96.798 c -2.19,1.591 -5.334,1.001 -7.021,-1.319 -1.687,-2.32 -1.28,-5.49 0.91,-7.082 L 64.624,62.203 V 61.665 L 41.896,37.487 c -1.854,-1.972 -1.661,-5.161 0.431,-7.124 2.092,-1.962 5.29,-1.954 7.144,0.018 l 27.271,29.012 c 1.548,1.647 1.663,4.141 0.442,6.062 z"
         id="path1602" />
      <path
         style="clip-rule:evenodd;fill:#ffffff;fill-rule:evenodd"
         d="m 63.55,87 h 21.613 c 2.513,0 4.55,2.015 4.55,4.5 0,2.485 -2.037,4.5 -4.55,4.5 H 63.55 C 61.037,96 59,93.985 59,91.5 59,89.015 61.037,87 63.55,87 Z"
         id="path1604" />
    </g>
  </g>
</svg>
